<?xml version="1.0" encoding="UTF-8" standalone="no"?>
<!-- Created with Inkscape (http://www.inkscape.org/) -->

<svg
   width="64.0px"
   height="64.0px"
   viewBox="0 0 64.0 64.0"
   version="1.1"
   id="SVGRoot"
   sodipodi:docname="favicon.svg"
   inkscape:version="1.2.2 (b0a8486541, 2022-12-01)"
   xmlns:inkscape="http://www.inkscape.org/namespaces/inkscape"
   xmlns:sodipodi="http://sodipodi.sourceforge.net/DTD/sodipodi-0.dtd"
   xmlns="http://www.w3.org/2000/svg"
   xmlns:svg="http://www.w3.org/2000/svg">
  <sodipodi:namedview
     id="namedview137"
     pagecolor="#505050"
     bordercolor="#eeeeee"
     borderopacity="1"
     inkscape:showpageshadow="0"
     inkscape:pageopacity="0"
     inkscape:pagecheckerboard="0"
     inkscape:deskcolor="#505050"
     inkscape:document-units="px"
     showgrid="true"
     inkscape:zoom="8.3352097"
     inkscape:cx="23.334746"
     inkscape:cy="34.912139"
     inkscape:window-width="1920"
     inkscape:window-height="1007"
     inkscape:window-x="0"
     inkscape:window-y="0"
     inkscape:window-maximized="1"
     inkscape:current-layer="layer1"
     showguides="true">
    <inkscape:grid
       type="xygrid"
       id="grid260"
       enabled="false" />
  </sodipodi:namedview>
  <defs
     id="defs132" />
  <g
     inkscape:label="Layer 1"
     inkscape:groupmode="layer"
     id="layer1">
    <g
       id="g3247"
       style="fill:#000000;fill-opacity:1;stroke:#ffffff;stroke-opacity:1">
      <path
         style="fill:#000000;stroke:#ffffff;stroke-width:4;stroke-linecap:round;fill-opacity:1;stroke-opacity:1"
         d="m 32.501701,2.2759096 c -0.508954,0.053171 -1.028289,0.044245 -1.526861,0.1595138 -0.326292,0.075438 -0.848899,0.4829213 -1.19973,0.5998649 -0.193451,0.064484 -0.39991,0.079982 -0.599865,0.119973 -0.279937,0.119973 -0.552612,0.2585545 -0.839811,0.3599189 C 26.681077,4.0990711 24.96769,4.588667 23.416541,5.434748 22.748039,5.7993859 22.080263,6.436293 21.496974,6.7544509 20.908458,7.0754596 20.203094,7.1136665 19.577406,7.3543158 17.772495,8.0485125 16.074377,8.9927257 14.298594,9.7537755 12.266866,10.624517 10.41855,11.364561 9.0197832,13.11302 c -0.4092602,0.511575 -0.963103,1.16859 -1.1997298,1.799594 -0.071599,0.190932 -0.079982,0.39991 -0.119973,0.599865 -0.119973,0.239946 -0.2636165,0.469452 -0.359919,0.719838 C 7.2356487,16.50405 7.198136,16.79795 7.1002155,17.072128 6.7626642,18.017272 6.271485,18.904008 5.9004856,19.831507 5.5105913,20.806242 5.0549938,21.938199 4.5807827,22.830831 4.2267823,23.497185 3.752334,24.093517 3.3810529,24.750399 2.7855571,25.803969 2.1654165,28.524561 2.06135,29.669292 c -0.042486,0.467351 -0.077076,1.217163 0,1.679621 0.095726,0.574356 0.3578879,1.11027 0.479892,1.679622 0.306308,1.429438 0.5585315,2.867271 0.7198379,4.319028 0.1196364,1.076727 0.2828087,2.159727 0.3599189,3.23927 0.019945,0.279226 -0.025344,0.561024 0,0.839811 0.053957,0.593522 0.4974826,1.93874 0.599865,2.39946 0.146905,0.661072 0.5023207,2.945671 0.9597839,3.59919 0.813403,1.162004 2.3881744,1.620144 3.4792166,2.399459 0.600045,0.428604 1.1724806,0.904361 1.6796217,1.439676 1.053832,1.112379 -0.212048,0.684363 1.319703,1.559649 1.086967,0.621124 2.234061,1.130752 3.359243,1.679622 1.16294,0.567287 1.679646,0.654417 2.639406,1.439676 0.111597,0.09131 0.137989,0.257961 0.239946,0.359919 0.221657,0.221657 1.322609,0.188944 1.679622,0.239946 0.288213,0.04117 0.550453,0.207795 0.839811,0.239946 0.238478,0.0265 0.481997,-0.03171 0.719838,0 0.812499,0.108333 1.644449,0.417833 2.399459,0.719838 0.05251,0.021 0.06511,0.106256 0.119973,0.119973 0.116391,0.0291 0.242803,-0.02603 0.359919,0 0.57344,0.127431 1.076772,0.387859 1.559649,0.719837 0.879022,0.604328 1.473231,1.280662 2.519433,1.559649 0.826044,0.220279 1.697416,0.24503 2.519433,0.479892 0.201948,-0.01267 0.198958,0.306266 0.359919,0.359919 0.189693,0.06323 0.401919,-0.02828 0.599864,0 0.887016,0.126717 1.760805,0.453432 2.639406,0.599865 0.236681,0.03945 0.480599,-0.0184 0.719838,0 0.142645,0.01097 2.077444,0.206272 2.279487,0.239946 0.363682,0.06061 0.714292,0.191217 1.079757,0.239946 2.028973,0 0.05066,-0.107307 0.959784,0.119973 0.310286,0.07757 0.556157,-0.179163 0.839811,-0.239946 0.354095,-0.07588 0.718873,-0.0899 1.079756,-0.119973 1.19824,-0.09985 2.406082,-0.09081 3.59919,-0.239946 0.127592,-0.01595 1.574817,-0.90335 1.679622,-0.959784 1.752501,-0.943654 2.805373,-2.205508 4.199054,-3.599189 0.159964,-0.159964 0.332668,-0.308131 0.479892,-0.479892 0.09384,-0.109477 0.127353,-0.269845 0.239946,-0.359919 0.09875,-0.079 0.251478,-0.05491 0.359919,-0.119973 0.242481,-0.145489 0.387052,-0.413654 0.599865,-0.599865 0.788042,-0.689536 1.440763,-1.392846 2.159514,-2.159514 0.309447,-0.330077 0.677143,-0.606483 0.959784,-0.959784 0.04996,-0.06245 -0.03577,-0.168408 0,-0.239946 0.01788,-0.03577 0.0867,0.02218 0.119973,0 0.09411,-0.06274 0.172079,-0.149457 0.239946,-0.239946 0.181072,-0.24143 0.244638,-0.570822 0.359919,-0.839811 0.219436,-0.512017 0.471711,-1.063395 0.719838,-1.559649 0.262721,-0.525443 0.575767,-1.031562 0.839811,-1.559648 0.382884,-0.76577 1.048082,-1.344654 1.319702,-2.159514 0.325667,-0.976999 0.497053,-1.996791 0.719838,-2.999325 0.06316,-0.284206 0.192083,-0.552633 0.239946,-0.839811 0.102941,-0.617643 0.01575,-1.321707 0.239946,-1.919567 0.314209,-0.837891 0.831167,-1.739087 0.959784,-2.639406 0.188361,-1.318526 -0.271485,0.486076 0.119973,-1.079757 0.171871,-0.687484 0.446139,-1.347773 0.599865,-2.039541 0.0827,-0.372145 0,-0.94415 0,-1.319703 0,-0.864228 0.09569,-1.778173 0,-2.639405 -0.08992,-0.809293 -0.390275,-1.592904 -0.479892,-2.39946 -0.01767,-0.158986 0.0388,-0.324704 0,-0.479892 -0.154171,-0.616685 -0.623089,-1.323582 -0.839811,-1.919568 -0.242117,-0.665821 -0.2743,-1.388412 -0.599865,-2.039541 -0.373874,-0.747749 -0.942477,-1.405063 -1.319703,-2.159513 -0.363634,-0.727269 -0.262902,-0.730019 -0.599865,-1.319703 -0.274467,-0.480319 -0.643007,-0.914867 -0.83981,-1.439676 -0.0579,-0.154389 -0.02414,-0.345718 -0.119973,-0.479892 -0.116222,-0.16271 -0.338503,-0.218529 -0.479892,-0.359919 C 55.585477,16.368465 54.967843,14.911021 53.88968,13.832857 53.10215,13.045328 51.918741,12.701729 51.130301,11.91329 50.807884,11.590872 50.593419,11.174327 50.29049,10.833533 49.728016,10.200749 49.048381,9.6710637 48.490896,9.0339376 47.974548,8.4438258 48.477442,8.9204145 48.130977,8.3140997 47.854818,7.8308214 47.510247,7.218694 47.05122,6.8744239 46.728431,6.6323321 46.311501,6.4870826 45.971463,6.2745589 44.577171,5.4031263 43.091121,4.754571 41.532462,4.2350182 41.211415,4.1280025 40.909708,3.9499947 40.572678,3.8750992 40.335215,3.8223296 40.085023,3.8276833 39.852841,3.7551262 39.441731,3.6266543 39.064221,3.4037061 38.653111,3.2752343 37.686225,2.9730823 38.210288,3.3275817 37.333408,3.0352883 37.16374,2.9787325 37.020974,2.858139 36.853516,2.7953423 36.393881,2.6229791 35.879724,2.5907179 35.41384,2.4354234 34.402284,2.0982379 35.23631,2.238672 34.094137,2.0755044 33.568331,2.0003892 33.015084,2.1953669 32.501701,2.2759096 Z"
         id="path2500" />
    </g>
    <g
       id="g343"
       transform="translate(-1.3007894e-5,1.001358e-5)">
      <g
         id="g323"
         transform="matrix(0.99998848,0,0,1,0.54799291,-0.577771)"
         style="stroke-width:1.00001">
        <path
           style="fill:none;fill-opacity:1;stroke:#ffffff;stroke-width:4.00002;stroke-linecap:round;stroke-dasharray:none;stroke-opacity:1"
           d="m 11.452139,19.577771 c 0.139847,6.102962 -0.01741,12.226559 0.279419,18.334353 0.434861,8.945229 0.422096,3.483587 0.422096,6.169218 0,0.05712 0.01005,-0.11481 0,-0.171367 -0.06052,-0.34397 -0.184356,-0.681418 -0.211049,-1.028204 -0.04389,-0.570112 -0.09949,-1.148189 0,-1.71367 0.183448,-1.0427 0.378533,-2.101531 0.844195,-3.08461 0.415398,-0.876973 3.17655,-2.994529 4.643061,-2.399139 0.06292,0.02554 -0.03902,0.12384 0,0.171366 0.110373,0.134426 0.281398,0.22849 0.422098,0.342735 0.140689,0.342734 0.235645,0.700181 0.422096,1.028202 1.102798,1.940143 2.264244,3.342866 2.743629,5.48375 0.208286,0.930184 0.211048,1.798386 0.211048,2.741873 0,0.05455 0,-0.109101 0,-0.16365"
           id="path2739" />
        <path
           style="fill:none;fill-opacity:1;stroke:#ffffff;stroke-width:4.00003;stroke-linecap:round;stroke-dasharray:none;stroke-opacity:1"
           d="m 33.989114,22.562017 c -1.997098,-0.07986 -6.844283,-0.68619 -8.286423,1.225621 -0.869508,1.152686 -1.896412,8.409067 -1.619672,9.759805 0.316497,1.54479 4.40789,0.756715 5.758832,0.390393 3.360733,-0.911299 4.384157,-3.55488 5.398904,-6.636668 0.354252,-1.075865 0.899817,-1.957567 0.899817,-3.123138 0,-0.06506 0,0.130125 0,0.195197 0,0.715719 0,1.431439 0,2.147157 0,1.632919 0.124518,3.933894 1.439708,5.075099 0.140523,0.121941 0.412636,-0.138019 0.539891,0 0.04243,0.04601 -0.05691,0.174621 0,0.195196 0.170727,0.06173 0.361735,-0.02761 0.53989,0 0.667745,0.10346 0.751901,0.212982 1.329186,0.533342"
           id="path2741" />
        <g
           id="g2814"
           transform="matrix(1.4227367,0,0,1.4716823,-5.3309092,-12.012593)"
           style="stroke:#ffffff;stroke-width:2.76436;stroke-dasharray:none;stroke-opacity:1">
          <path
             style="opacity:1;fill:none;fill-opacity:1;stroke:#ffffff;stroke-width:2.76436;stroke-linecap:round;stroke-dasharray:none;stroke-opacity:1"
             d="m 39.461971,36.861411 c -0.147842,0.985898 -0.08854,0.391406 -0.08854,1.79014 0,1.119748 0,2.239496 0,3.359244 0,0.283539 0,1.134155 0,0.850616"
             id="path2743" />
          <path
             style="opacity:1;fill:none;fill-opacity:1;stroke:#ffffff;stroke-width:2.76436;stroke-linecap:round;stroke-dasharray:none;stroke-opacity:1"
             d="m 38.502187,28.477154 c -0.0123,0.04039 0.0021,0.104949 -0.03691,0.121157 -0.07833,0.03257 -0.169667,0 -0.254501,0 -0.183806,0.05656 -0.382799,0.0772 -0.551419,0.169668 -0.275262,0.15095 -0.534895,0.336258 -0.763503,0.551419 -0.617143,0.58084 -1.872955,2.162427 -0.339335,2.757095 0.425126,0.164845 0.915896,-0.0555 1.357339,-0.169667 1.227612,-0.317486 2.35791,-1.100138 2.502595,-2.460178 0.02939,-0.276227 -0.11919,-0.544126 -0.212084,-0.80592 -0.225304,-0.634946 -0.651536,-0.990871 -1.145256,-1.48459 -0.350638,-0.350639 -0.313045,0.04242 -0.593836,0.04242 -0.05788,0 0.02461,-0.113112 0.03691,-0.169668"
             id="path2801" />
        </g>
      </g>
    </g>
  </g>
</svg>
